<?xml version="1.0" standalone="no"?>
<!DOCTYPE svg PUBLIC "-//W3C//DTD SVG 20010904//EN"
 "http://www.w3.org/TR/2001/REC-SVG-20010904/DTD/svg10.dtd">
<svg version="1.0" xmlns="http://www.w3.org/2000/svg"
 width="866.000000pt" height="866.000000pt" viewBox="0 0 866.000000 866.000000"
 preserveAspectRatio="xMidYMid meet">
<metadata>
Created by potrace 1.11, written by Peter Selinger 2001-2013
</metadata>
<g transform="translate(0.000000,866.000000) scale(0.100000,-0.100000)"
fill="#000000" stroke="none">
<path d="M3580 8511 c-454 -77 -905 -155 -1003 -175 -229 -46 -820 -192 -847
-208 -23 -14 -379 -419 -397 -452 -22 -38 -14 -76 48 -220 81 -190 91 -198
279 -259 103 -34 178 -66 259 -112 117 -65 184 -88 234 -78 64 12 6 -52 -93
-102 -19 -10 -201 -82 -405 -161 -347 -135 -372 -147 -408 -186 l-38 -42 39
-39 39 -38 644 -151 c554 -129 657 -150 734 -151 66 -2 103 3 137 16 65 25 85
16 114 -49 36 -82 94 -253 94 -278 0 -32 -19 -46 -169 -121 -206 -103 -242
-129 -417 -307 -143 -145 -165 -172 -202 -248 -26 -52 -48 -116 -58 -165 -8
-44 -26 -134 -40 -200 l-24 -120 20 -130 c11 -71 39 -229 61 -350 22 -121 49
-265 59 -320 22 -118 26 -103 -86 -303 -135 -239 -142 -253 -170 -372 -35
-150 -42 -292 -19 -379 33 -126 125 -274 203 -326 20 -13 96 -41 167 -61 84
-23 138 -44 151 -58 16 -16 42 -106 108 -371 134 -538 375 -1475 392 -1522 14
-38 26 -49 122 -107 211 -126 246 -139 822 -303 l205 -58 569 2 c432 2 574 6
595 16 53 25 53 28 22 477 -22 308 -27 418 -19 436 15 32 56 33 63 2 2 -13 13
-144 24 -291 18 -255 20 -269 42 -294 24 -25 26 -25 124 -19 55 3 110 3 123 0
27 -8 30 -43 6 -79 -13 -19 -15 -45 -12 -121 4 -119 12 -128 103 -119 153 16
171 34 160 156 -7 75 -9 82 -36 98 -37 21 -49 50 -49 120 0 45 -5 65 -22 86
l-21 27 -109 -7 c-78 -5 -112 -4 -123 5 -16 14 -22 61 -35 279 -9 169 -6 195
28 205 20 7 236 36 263 36 30 0 47 -27 62 -97 30 -136 31 -150 7 -158 -21 -7
-21 -11 -15 -93 11 -144 10 -143 149 -133 79 6 102 12 113 26 14 20 17 79 7
162 -6 48 -8 52 -39 57 -37 7 -37 8 -56 135 -12 81 -12 84 8 101 12 9 61 24
109 33 102 19 125 36 133 99 5 38 10 44 41 55 19 7 69 12 111 12 62 1 79 -2
93 -18 18 -20 78 -309 91 -436 4 -38 16 -117 26 -174 24 -135 24 -151 -1 -151
-17 0 -20 -6 -19 -47 1 -73 15 -144 30 -154 17 -12 214 -7 226 5 9 8 7 133 -3
178 -5 24 -11 28 -39 28 -31 0 -35 3 -40 33 -9 53 -32 256 -65 557 -37 343
-34 335 -136 335 -38 0 -121 -4 -184 -8 -74 -5 -120 -4 -130 2 -10 7 -16 33
-18 85 -4 69 -2 75 19 89 15 9 83 22 174 32 83 9 195 22 250 29 139 19 135 22
169 -151 33 -167 41 -191 73 -199 13 -4 57 -1 99 5 112 17 131 15 138 -12 5
-22 6 -23 108 -14 66 5 108 13 117 22 12 12 12 29 2 111 -6 53 -14 101 -18
107 -6 10 -147 2 -213 -12 -29 -6 -34 -11 -32 -29 7 -47 -107 -57 -139 -12
-10 14 -30 81 -44 150 -32 151 -46 187 -79 196 -21 5 -499 -46 -578 -62 -42
-8 -68 24 -68 86 0 43 3 52 23 60 12 5 150 21 307 35 157 14 330 33 385 42
107 17 155 13 155 -13 0 -15 11 -16 92 -9 131 10 130 9 122 108 -10 118 -15
131 -50 135 -16 2 -62 1 -101 -3 -69 -6 -73 -8 -73 -31 0 -13 -6 -24 -12 -24
-7 0 -46 -5 -87 -10 -134 -18 -554 -59 -656 -65 -93 -6 -98 -5 -74 9 15 8 216
69 448 136 232 66 432 127 445 135 13 9 29 28 34 43 6 15 22 185 37 377 48
648 56 1148 22 1345 -9 47 -18 123 -22 170 -4 47 -15 177 -26 290 -28 294 -35
550 -19 740 l13 159 -24 40 c-16 26 -71 75 -159 143 -224 170 -361 249 -640
368 -69 30 -133 59 -143 66 -37 24 -423 586 -479 698 -47 92 -263 603 -319
756 -28 74 -73 227 -101 340 -55 228 -65 253 -111 297 -35 34 -663 475 -710
500 -65 33 -115 27 -967 -116z m925 -52 c30 -11 90 -46 133 -78 42 -31 138
-99 212 -150 227 -157 269 -191 295 -235 13 -22 74 -203 134 -401 142 -460
181 -568 296 -800 96 -195 148 -278 335 -540 199 -278 246 -358 299 -509 17
-49 47 -125 67 -169 56 -129 76 -230 78 -392 2 -219 -10 -479 -23 -503 -34
-63 -716 -188 -1287 -236 -264 -23 -778 -39 -1014 -33 -198 5 -411 27 -458 47
-32 14 -42 42 -112 311 -154 588 -294 1091 -356 1274 -51 151 -99 257 -197
437 -177 322 -341 642 -398 775 -54 127 -116 308 -169 490 -26 92 -52 122
-153 175 -119 64 -201 118 -191 127 10 10 595 134 864 185 102 19 381 67 620
106 239 39 518 87 620 105 223 40 326 44 405 14z m-2540 -583 c83 -46 163 -95
178 -108 24 -19 44 -68 118 -288 89 -266 100 -310 77 -310 -7 -1 -57 -5 -112
-10 -116 -10 -139 -4 -237 62 -65 44 -181 92 -288 119 -69 17 -136 77 -178
156 -38 71 -46 111 -30 140 16 29 266 311 280 317 27 11 49 2 192 -78z m498
-888 c17 -13 323 -604 333 -643 10 -39 -19 -50 -135 -50 -99 1 -139 8 -610
118 -277 64 -506 119 -508 121 -5 4 113 51 378 151 91 35 183 72 205 83 54 27
148 98 229 171 70 64 81 69 108 49z m-83 -3978 c38 -239 70 -443 70 -452 0
-10 -7 -18 -15 -18 -22 0 -194 76 -215 95 -10 9 -34 49 -54 88 -45 89 -54 164
-37 315 23 195 39 246 124 381 34 54 42 61 48 45 5 -10 40 -215 79 -454z
m3707 -1245 c7 -104 19 -257 27 -340 8 -82 12 -162 9 -177 -6 -34 21 -29 -408
-73 -187 -19 -351 -38 -363 -41 -30 -6 -52 11 -52 42 0 29 5 30 165 44 467 42
541 55 565 99 13 25 13 184 0 425 -6 104 -8 196 -5 203 3 8 15 13 27 11 22 -3
23 -8 35 -193z"/>
<path d="M3532 7735 c-37 -31 -40 -40 -101 -260 -27 -99 -54 -192 -60 -208
l-11 -27 -87 65 c-106 78 -139 95 -188 95 -50 0 -95 -44 -95 -93 0 -51 29 -80
205 -206 174 -126 225 -150 262 -126 33 22 80 90 88 128 4 18 40 143 81 278
41 135 74 260 74 278 0 45 -16 70 -55 87 -49 20 -79 17 -113 -11z m82 -45 c14
-5 26 -16 26 -25 0 -20 -147 -519 -167 -567 -9 -21 -24 -45 -33 -53 -17 -15
-21 -15 -52 1 -43 22 -298 206 -321 232 -15 16 -16 24 -7 41 6 12 19 21 28 21
21 0 88 -41 180 -111 75 -57 112 -62 144 -19 10 14 46 123 80 243 52 187 75
247 93 247 2 0 15 -4 29 -10z"/>
<path d="M4500 7625 c-481 -145 -468 -141 -491 -179 -10 -17 -19 -38 -19 -47
0 -23 43 -59 71 -59 46 0 920 276 941 298 25 25 26 71 2 89 -42 30 -118 15
-504 -102z"/>
<path d="M4052 6612 c-39 -39 -55 -84 -136 -375 -13 -49 -27 -91 -30 -94 -3
-3 -40 17 -83 45 -43 28 -95 58 -117 67 -96 40 -167 -42 -120 -141 25 -52 321
-244 377 -244 39 0 72 18 91 50 15 27 175 534 190 606 14 64 -33 124 -96 124
-31 0 -45 -7 -76 -38z m106 -56 c3 -27 -26 -132 -129 -458 -57 -181 -62 -186
-137 -142 -135 77 -270 176 -276 200 -17 64 27 58 149 -21 109 -70 145 -79
169 -42 8 12 40 112 71 222 32 110 63 212 71 227 28 53 77 62 82 14z"/>
<path d="M5475 6633 c-29 -7 -687 -195 -830 -238 -128 -37 -154 -56 -155 -107
0 -37 48 -71 87 -62 67 15 934 265 956 275 53 24 53 109 0 130 -26 9 -26 9
-58 2z"/>
<path d="M5510 5341 c-537 -148 -505 -138 -535 -172 -14 -17 -25 -36 -25 -42
0 -17 52 -67 70 -67 9 0 227 57 486 126 339 91 475 131 492 147 48 45 14 117
-55 117 -21 -1 -216 -50 -433 -109z"/>
<path d="M4502 5425 c-38 -17 -44 -28 -131 -282 -35 -101 -67 -183 -72 -183
-4 0 -34 23 -66 51 -69 61 -127 101 -170 118 -30 12 -35 11 -73 -19 -34 -27
-40 -37 -40 -70 0 -62 16 -84 129 -178 224 -188 252 -202 317 -167 39 21 57
54 130 250 137 368 138 372 125 416 -23 76 -73 97 -149 64z m82 -61 c13 -34 4
-71 -60 -237 -36 -95 -79 -211 -96 -259 -32 -94 -64 -133 -98 -120 -18 7 -192
144 -272 214 -44 40 -58 81 -32 96 26 14 63 -7 159 -90 142 -124 151 -120 224
89 28 81 64 183 79 225 25 72 44 95 78 97 7 1 15 -6 18 -15z"/>
</g>
</svg>
